:SAMPLES-PER-SECOND 30
:FULLY-SPECIFIED
:DEGREES
63
root  15.4445 35.9999 -13.5691 17.0638 6.86223 -0.779222
RightUpLeg  -47.799 2.82079 3.12607
RightLeg  63.1406 -5.56832 -12.3667
RightFoot  -20.6498 0.00338466 1.75909
RightToes  -7.95927 -0.0249649 -0.0736951
Spine  17.6986 1.61499 2.58653
Spine1  -3.83905 0.508586 3.76247
HEad  0.729721 -14.7178 0.648251
LeftShoulder1  -7.76503e-019 -2.42657e-020 -1.34036e-021
LeftArm  -11.465 20.1798 -74.7125
LeftForeArm  15.4111 -34.4409 -6.80523
LeftHand  10.6359 52.6478 23.6027
RightShoulder  7.45443e-017 -2.42657e-020 1.96277e-018
RightArm  -16.5672 -16.3816 72.7427
RightForeArm  11.6493 38.9691 8.33884
RightHand  -10.426 27.5129 -35.7248
LeftUpLeg  -48.7656 3.95212 -4.43872
LeftLeg  67.1443 -1.57743 -3.38264
LeftFoot  -17.354 0.123767 0.374191
LeftToes  -31.7611 1.06988e-006 1.21085e-007
64
root  15.1002 35.4701 -13.2329 16.1593 6.63521 -1.29966
RightUpLeg  -44.6516 2.23388 3.58761
RightLeg  60.1626 -4.45583 -8.86023
RightFoot  -23.1626 -0.029505 1.2306
RightToes  -13.292 -0.0473035 -0.120824
Spine  15.8057 1.63502 2.82749
Spine1  -3.15444 0.517054 3.81509
HEad  0.312894 -14.4923 0.417434
LeftShoulder1  -7.76503e-019 -2.42657e-020 -1.34036e-021
LeftArm  -10.246 20.2944 -74.4716
LeftForeArm  12.2434 -36.1734 -7.47221
LeftHand  9.70828 51.3662 22.3079
RightShoulder  7.45443e-017 -2.42657e-020 1.96277e-018
RightArm  -14.8891 -15.2664 71.7425
RightForeArm  11.8957 39.1814 8.38885
RightHand  -9.89747 26.7337 -34.8214
LeftUpLeg  -45.0462 2.67995 -4.13126
LeftLeg  63.2466 -2.82222 -5.45819
LeftFoot  -17.9979 0.147733 0.683382
LeftToes  -17.5462 1.06988e-006 1.21085e-007
65
root  14.8079 34.7299 -13.0678 14.2427 6.27888 -1.82958
RightUpLeg  -42.0596 0.249251 5.04372
RightLeg  59.9986 -2.95842 -6.04213
RightFoot  -27.4356 -0.080007 0.750824
RightToes  -12.4891 -0.0436609 -0.113864
Spine  15.1952 1.73598 3.22054
Spine1  -3.15973 0.584533 3.74886
HEad  0.325323 -14.1402 0.234853
LeftShoulder1  -7.76503e-019 -2.42657e-020 -1.34036e-021
LeftArm  -8.71226 19.6587 -74.7762
LeftForeArm  10.225 -37.2313 -7.90063
LeftHand  9.18512 51.1645 21.2658
RightShoulder  7.45443e-017 -2.42657e-020 1.96277e-018
RightArm  -13.8807 -13.8248 71.3948
RightForeArm  13.407 38.8029 8.17618
RightHand  -9.28852 26.2912 -33.2536
LeftUpLeg  -41.0397 2.40541 -4.10374
LeftLeg  62.2272 -0.0665857 0.481293
LeftFoot  -25.439 0.141326 -0.0934029
LeftToes  -10.2306 1.06988e-006 1.21085e-007
66
root  14.4799 34.2232 -13.0503 13.7502 5.32331 -2.64842
RightUpLeg  -42.2067 0.54205 6.54511
RightLeg  61.0369 -2.54703 -5.51348
RightFoot  -29.7627 -0.0978233 0.643808
RightToes  -10.4979 -0.0350516 -0.0963894
Spine  13.6467 2.16651 3.43603
Spine1  -3.45685 0.738343 4.13277
HEad  0.0182363 -13.4648 -0.148553
LeftShoulder1  -7.76503e-019 -2.42657e-020 -1.34036e-021
LeftArm  -9.23219 18.3041 -76.6689
LeftForeArm  10.188 -36.8883 -7.80264
LeftHand  8.74985 51.4007 20.1916
RightShoulder  7.45443e-017 -2.42657e-020 1.96277e-018
RightArm  -14.2079 -12.1262 72.0665
RightForeArm  14.7191 37.9612 7.84034
RightHand  -8.94543 25.9292 -32.4563
LeftUpLeg  -40.1662 1.47699 -3.23927
LeftLeg  62.4438 2.90256 6.65624
LeftFoot  -29.4772 0.0308034 -0.919157
LeftToes  -14.8096 1.06988e-006 1.21085e-007
67
root  14.1638 33.8882 -12.9819 14.1931 5.30604 -1.94994
RightUpLeg  -42.9424 1.29158 6.2874
RightLeg  61.6699 -2.78015 -6.13059
RightFoot  -31.2657 -0.0813987 0.747293
RightToes  -8.35205 -0.0264596 -0.0772353
Spine  11.5444 1.76745 1.70415
Spine1  -2.82179 0.557409 4.75241
HEad  -0.751064 -12.8604 0.952259
LeftShoulder1  -7.76503e-019 -2.42657e-020 -1.34036e-021
LeftArm  -11.4375 15.2893 -78.706
LeftForeArm  10.1026 -33.4949 -6.86646
LeftHand  7.27152 50.4262 17.3384
RightShoulder  7.45443e-017 -2.42657e-020 1.96277e-018
RightArm  -17.1847 -9.74778 74.6179
RightForeArm  14.9109 35.4747 7.11873
RightHand  -8.96687 25.1254 -33.3473
LeftUpLeg  -40.5212 0.145476 -3.18495
LeftLeg  62.5319 3.45786 7.82603
LeftFoot  -30.787 0.00211236 -1.07058
LeftToes  -15.6869 1.06988e-006 1.21085e-007
68
root  13.9461 34.2245 -12.8145 12.3915 6.66461 -1.44092
RightUpLeg  -39.4379 1.05971 6.2778
RightLeg  60.0261 -3.61731 -7.26825
RightFoot  -32.0012 -0.0446379 0.949972
RightToes  -7.70347 -0.0240044 -0.0713839
Spine  12.0707 0.443553 0.91122
Spine1  -2.65043 0.172839 4.98113
HEad  -0.188759 -12.4859 1.44342
LeftShoulder1  -7.76503e-019 -2.42657e-020 -1.34036e-021
LeftArm  -14.201 11.6534 -81.5316
LeftForeArm  11.6884 -27.6301 -5.33011
LeftHand  7.68229 51.5335 17.7859
RightShoulder  7.45443e-017 -2.42657e-020 1.96277e-018
RightArm  -21.0193 -8.74831 78.1482
RightForeArm  15.5775 32.2744 6.2347
RightHand  -8.32158 22.7435 -33.5956
LeftUpLeg  -37.4146 -0.224474 -3.0159
LeftLeg  60.6687 3.29875 6.92754
LeftFoot  -30.2492 0.0239098 -0.950854
LeftToes  -16.4283 1.06988e-006 1.21085e-007
69
root  13.7847 34.8358 -12.5826 11.9967 7.38814 -1.1893
RightUpLeg  -36.7143 1.03837 6.28039
RightLeg  56.7371 -4.30907 -7.49002
RightFoot  -31.568 -0.0313155 1.02855
RightToes  -6.17801 -0.0184922 -0.0575149
Spine  10.7087 -0.276513 0.672841
Spine1  -2.40042 -0.0501784 4.79169
HEad  1.90931 -12.3602 0.88233
LeftShoulder1  -7.76503e-019 -2.42657e-020 -1.34036e-021
LeftArm  -14.7818 8.5747 -84.8502
LeftForeArm  13.673 -22.9318 -3.93109
LeftHand  9.10927 55.3209 19.1516
RightShoulder  7.45443e-017 -2.42657e-020 1.96277e-018
RightArm  -22.0624 -9.57538 81.335
RightForeArm  16.3842 30.6277 5.78007
RightHand  -7.38508 19.8134 -33.3421
LeftUpLeg  -34.9545 0.125843 -2.87511
LeftLeg  57.2305 3.23255 5.93107
LeftFoot  -29.3537 0.0456435 -0.827171
LeftToes  -16.0723 1.06988e-006 1.21085e-007
70
root  13.6614 35.4649 -12.3265 12.3849 7.75792 -0.46451
RightUpLeg  -34.6635 1.17729 5.62218
RightLeg  53.1289 -4.78484 -7.21184
RightFoot  -30.6903 -0.0322829 1.03469
RightToes  -4.90182 -0.0141657 -0.0458029
Spine  8.54508 -0.393964 -0.0180639
Spine1  -1.9292 -0.125554 4.40077
HEad  3.22209 -12.9048 0.492414
LeftShoulder1  -7.76503e-019 -2.42657e-020 -1.34036e-021
LeftArm  -10.1724 7.8622 -86.8442
LeftForeArm  13.896 -24.0981 -4.42621
LeftHand  9.25888 57.4144 18.5634
RightShoulder  7.45443e-017 -2.42657e-020 1.96277e-018
RightArm  -19.9738 -11.8398 83.9285
RightForeArm  16.9645 31.8084 6.03748
RightHand  -6.48292 18.8336 -30.6334
LeftUpLeg  -33.0094 0.480788 -3.40605
LeftLeg  53.4113 3.41404 5.40927
LeftFoot  -28.0875 0.0554343 -0.771531
LeftToes  -15.7087 1.06988e-006 1.21085e-007
71
root  13.5508 35.9764 -12.0326 12.0212 8.22367 -0.299278
RightUpLeg  -31.861 1.77649 5.53379
RightLeg  49.81 -5.51009 -7.30832
RightFoot  -31.5651 -0.0155942 1.11676
RightToes  -1.22515 -0.00317237 -0.0115589
Spine  7.09804 -0.708511 0.0322175
Spine1  -1.57685 -0.219963 4.30951
HEad  4.26654 -13.1011 -0.165473
LeftShoulder1  -7.76503e-019 -2.42657e-020 -1.34036e-021
LeftArm  -1.57602 9.07644 -87.6983
LeftForeArm  11.8733 -29.9794 -5.87505
LeftHand  8.231 55.3008 17.399
RightShoulder  7.45443e-017 -2.42657e-020 1.96277e-018
RightArm  -13.4339 -15.0253 84.5708
RightForeArm  16.0632 35.2619 6.99077
RightHand  -5.8878 19.7945 -26.9489
LeftUpLeg  -30.4843 0.359216 -3.27156
LeftLeg  50.035 3.59 5.02825
LeftFoot  -27.2222 0.0610232 -0.736211
LeftToes  -15.7835 1.06988e-006 1.21085e-007
72
root  13.4731 36.3043 -11.7328 11.4928 8.52606 -0.0558693
RightUpLeg  -29.2243 2.5335 5.39019
RightLeg  47.4298 -7.02548 -8.45254
RightFoot  -30.935 0.0272041 1.37595
RightToes  -8.04946 -0.0253059 -0.0745088
Spine  5.74605 -0.824383 0.078641
Spine1  -1.19878 -0.254004 4.29739
HEad  5.66494 -13.3171 -0.870006
LeftShoulder1  -7.76503e-019 -2.42657e-020 -1.34036e-021
LeftArm  6.19107 10.4858 -87.9705
LeftForeArm  11.6088 -37.7074 -7.95558
LeftHand  7.02096 53.0701 15.7479
RightShoulder  7.45443e-017 -2.42657e-020 1.96277e-018
RightArm  -6.52593 -17.9062 84.1619
RightForeArm  16.3837 39.3541 8.15469
RightHand  -5.18293 21.2702 -22.5937
LeftUpLeg  -28.0316 -0.924848 -3.20864
LeftLeg  47.5228 4.30221 5.44192
LeftFoot  -26.8267 0.0511282 -0.810277
LeftToes  -14.1799 1.06988e-006 1.21085e-007
